<?xml version="1.0" encoding="UTF-8" standalone="no"?>
<!-- Generator: Adobe Illustrator 16.0.0, SVG Export Plug-In . SVG Version: 6.00 Build 0)  -->
<!DOCTYPE svg  PUBLIC '-//W3C//DTD SVG 1.1//EN'  'http://www.w3.org/Graphics/SVG/1.1/DTD/svg11.dtd'>
<svg id="Livello_1" xmlns="http://www.w3.org/2000/svg" xml:space="preserve" height="324.33px" viewBox="0 0 23.157 324.327" width="23.157px" version="1.1" y="0px" x="0px" enable-background="new 0 0 23.157 324.327">
<path d="m13.886 22.925c5.282-1.073 9.271-5.752 9.271-11.346 0-6.385-5.194-11.579-11.578-11.579s-11.579 5.194-11.579 11.579c0 5.594 3.989 10.273 9.271 11.346-5.023 1.062-8.721 5.518-8.721 10.858 0 5.94 4.606 10.776 10.606 11.074v279.14h1v-279.14c6-0.297 10.529-5.133 10.529-11.074 0.001-5.343-3.775-9.799-8.799-10.861zm-12.933-11.346c0-5.859 4.767-10.626 10.625-10.626s10.626 4.767 10.626 10.626c0 5.859-4.766 10.625-10.625 10.625s-10.626-4.766-10.626-10.625z" fill="#fff"/>
</svg>
