<?xml version="1.0" encoding="UTF-8" standalone="no"?>
<!-- Generator: Adobe Illustrator 16.0.0, SVG Export Plug-In . SVG Version: 6.00 Build 0)  -->
<svg id="Livello_1" xmlns:rdf="http://www.w3.org/1999/02/22-rdf-syntax-ns#" xmlns="http://www.w3.org/2000/svg" enable-background="new 0 0 23.157 324.327" xml:space="preserve" height="23.157" viewBox="0 0 324.00001 23.157" width="324" version="1.1" y="0px" x="0px" xmlns:cc="http://creativecommons.org/ns#" xmlns:dc="http://purl.org/dc/elements/1.1/"><metadata id="metadata9"><rdf:RDF><cc:Work rdf:about=""><dc:format>image/svg+xml</dc:format><dc:type rdf:resource="http://purl.org/dc/dcmitype/StillImage"/><dc:title/></cc:Work></rdf:RDF></metadata><path id="path3" fill="#fff" d="m301.08 9.271c1.07-5.282 5.75-9.271 11.34-9.271 6.39 0 11.58 5.194 11.58 11.578s-5.194 11.579-11.579 11.579c-5.594 0-10.273-3.989-11.346-9.271-1.062 5.023-5.518 8.721-10.858 8.721-5.94 0-10.776-4.606-11.074-10.606h-279.14v-1h279.14c0.297-6 5.133-10.529 11.074-10.529 5.34-0.001 9.796 3.775 10.858 8.799zm11.346 12.933c5.859 0 10.626-4.767 10.626-10.625s-4.767-10.626-10.626-10.626-10.625 4.766-10.625 10.625 4.766 10.626 10.625 10.626z"/></svg>
