<?xml version="1.0" encoding="UTF-8" standalone="no"?>
<!-- Generator: Adobe Illustrator 16.0.0, SVG Export Plug-In . SVG Version: 6.00 Build 0)  -->

<svg
   xmlns:dc="http://purl.org/dc/elements/1.1/"
   xmlns:cc="http://creativecommons.org/ns#"
   xmlns:rdf="http://www.w3.org/1999/02/22-rdf-syntax-ns#"
   xmlns:svg="http://www.w3.org/2000/svg"
   xmlns="http://www.w3.org/2000/svg"
   xmlns:sodipodi="http://sodipodi.sourceforge.net/DTD/sodipodi-0.dtd"
   xmlns:inkscape="http://www.inkscape.org/namespaces/inkscape"
   version="1.1"
   id="Livello_1"
   x="0px"
   y="0px"
   width="324"
   height="23.157"
   viewBox="0 0 324.00001 23.157"
   enable-background="new 0 0 23.157 324.327"
   xml:space="preserve"
   inkscape:version="0.91 r13725"
   sodipodi:docname="filetto1_right.svg"><metadata
     id="metadata9"><rdf:RDF><cc:Work
         rdf:about=""><dc:format>image/svg+xml</dc:format><dc:type
           rdf:resource="http://purl.org/dc/dcmitype/StillImage" /><dc:title></dc:title></cc:Work></rdf:RDF></metadata><defs
     id="defs7" /><sodipodi:namedview
     pagecolor="#ffffff"
     bordercolor="#666666"
     borderopacity="1"
     objecttolerance="10"
     gridtolerance="10"
     guidetolerance="10"
     inkscape:pageopacity="0"
     inkscape:pageshadow="2"
     inkscape:window-width="1920"
     inkscape:window-height="1016"
     id="namedview5"
     showgrid="false"
     fit-margin-top="0"
     fit-margin-left="0"
     fit-margin-right="0"
     fit-margin-bottom="0"
     inkscape:zoom="1.0290676"
     inkscape:cx="145.25123"
     inkscape:cy="-35.894633"
     inkscape:window-x="0"
     inkscape:window-y="27"
     inkscape:window-maximized="1"
     inkscape:current-layer="Livello_1" /><path
     d="M 22.925,9.271 C 21.852,3.989 17.173,0 11.579,0 5.194,0 0,5.194 0,11.578 c 0,6.384 5.194,11.579 11.579,11.579 5.594,0 10.273,-3.989 11.346,-9.271 1.062,5.023 5.518,8.721 10.858,8.721 5.94,0 10.776,-4.606 11.074,-10.606 l 279.143,0 0,-1 -279.143,0 C 44.56,5.001 39.724,0.472 33.783,0.472 28.443,0.471 23.987,4.247 22.925,9.271 Z M 11.579,22.204 C 5.72,22.204 0.953,17.437 0.953,11.579 0.953,5.721 5.72,0.953 11.579,0.953 c 5.859,0 10.625,4.766 10.625,10.625 0,5.859 -4.766,10.626 -10.625,10.626 z"
     id="path3"
     inkscape:connector-curvature="0"
     style="fill:#ffffff" /></svg>