<?xml version="1.0" encoding="utf-8"?>
<!-- Generator: Adobe Illustrator 16.0.0, SVG Export Plug-In . SVG Version: 6.00 Build 0)  -->
<!DOCTYPE svg PUBLIC "-//W3C//DTD SVG 1.1//EN" "http://www.w3.org/Graphics/SVG/1.1/DTD/svg11.dtd">
<svg version="1.1" id="Livello_1" xmlns="http://www.w3.org/2000/svg" xmlns:xlink="http://www.w3.org/1999/xlink" x="0px" y="0px"
	 width="404.729px" height="375.102px" viewBox="0 0 404.729 375.102" enable-background="new 0 0 404.729 375.102"
	 xml:space="preserve">
<g>
	<g>
		<path fill="none" stroke="#EC1B33" stroke-width="2" d="M395.401,130.017c0-66.571-53.967-120.538-120.537-120.538
			c-0.486,0-0.967,0.032-1.453,0.038c-2.895-0.536-5.969-0.837-9.271-0.837H9.327v357.743h146.444
			c0-90.378,57.673-115.985,123.738-115.985C358.619,250.436,395.401,195.029,395.401,130.017"/>
	</g>
	<g>
		<path fill="none" stroke="#EC1B33" stroke-width="2" d="M395.401,130.017c0-66.571-53.967-120.538-120.537-120.538
			c-0.486,0-0.967,0.032-1.453,0.038c-2.895-0.536-5.969-0.837-9.271-0.837H9.327v357.743h146.444
			c0-90.378,57.673-115.985,123.738-115.985C358.619,250.436,395.401,195.029,395.401,130.017z"/>
	</g>
</g>
<g>
	<g>
		<path fill="#D3522A" d="M78.163,321.045c0,2.367-1.691,3.66-4.09,3.66c-1.199,0-2.275-0.771-2.275-2
			c0-1.291,1.138-1.998,2.306-2.091l4.06-0.308L78.163,321.045L78.163,321.045z M83.297,327.226v-2.828c0,0-0.246,0.061-0.491,0.061
			c-0.646,0-0.893-0.276-0.893-1.014v-5.935c0-1.077-0.061-2.216-0.461-3.229c-0.922-2.398-3.259-3.259-5.996-3.259
			c-3.567,0-6.426,1.599-6.642,5.195h3.721c0.092-1.476,1.137-2.274,2.921-2.274c2.183,0,2.706,1.015,2.706,2.521v0.983
			l-4.705,0.339c-3.043,0.215-5.411,1.968-5.411,5.012c0,2.613,1.968,5.012,5.78,5.012c2.275,0,4.121-1.105,4.858-2.397
			c0.123,1.199,1.046,2.245,2.706,2.245C82.313,327.656,82.652,327.503,83.297,327.226 M64.879,327.409v-15.988h-3.843v8.455
			c0,1.292-0.246,2.737-1.168,3.598c-0.461,0.462-1.076,0.801-1.968,0.801c-2.029,0-2.766-1.169-2.766-3.046v-9.808H51.29v10.669
			c0,3.414,2.122,5.72,5.535,5.72c2.029,0,3.813-0.923,4.582-2.489l0.276,2.09L64.879,327.409L64.879,327.409z M48.584,327.194
			v-3.229c-1.046,0.123-1.691,0.154-2.49,0.154c-1.231,0-1.784-0.522-1.784-1.753v-7.779h4.028v-3.167H44.31v-5.013l-3.844,0.954
			v4.059h-2.92v3.167h2.92v8.117c0,3.075,1.599,4.92,4.829,4.92C46.431,327.625,47.508,327.471,48.584,327.194"/>
	</g>
	<g>
		<path fill="#D3522A" d="M136.582,289.723c0,2.368-1.69,3.659-4.089,3.659c-1.199,0-2.275-0.769-2.275-1.998
			c0-1.292,1.137-1.997,2.306-2.092l4.058-0.308V289.723z M141.718,295.902v-2.828c0,0-0.246,0.062-0.492,0.062
			c-0.646,0-0.893-0.277-0.893-1.017v-5.935c0-1.076-0.061-2.213-0.461-3.229c-0.922-2.398-3.259-3.26-5.996-3.26
			c-3.567,0-6.426,1.599-6.641,5.195h3.719c0.093-1.476,1.138-2.274,2.922-2.274c2.183,0,2.705,1.015,2.705,2.521v0.983
			l-4.704,0.338c-3.044,0.216-5.412,1.97-5.412,5.013c0,2.613,1.968,5.012,5.78,5.012c2.275,0,4.12-1.105,4.858-2.397
			c0.123,1.199,1.045,2.245,2.706,2.245C140.733,296.334,141.072,296.18,141.718,295.902 M125.575,283.665v-3.688
			c-0.399-0.062-0.799-0.093-1.199-0.093c-1.875,0-3.782,0.769-4.521,2.613l-0.337-2.397h-3.26v15.988h3.875v-8.056
			c0-2.583,1.415-4.521,4.12-4.521C124.685,283.512,125.146,283.574,125.575,283.665 M109.126,286.494h-6.919
			c0.032-1.045,0.277-1.783,0.831-2.489c0.553-0.739,1.506-1.229,2.674-1.229c1.107,0,1.906,0.369,2.429,0.922
			C108.756,284.373,109.095,285.295,109.126,286.494 M112.969,288.216c0.062-1.998-0.215-3.812-1.384-5.563
			c-1.321-2-3.474-2.952-5.842-2.952c-2.183,0-3.904,0.8-5.104,2.028c-1.538,1.568-2.307,3.845-2.307,6.396
			c0,2.614,0.861,4.857,2.459,6.396c1.262,1.199,2.86,1.967,5.043,1.967c2.029,0,4.028-0.646,5.38-2.243
			c0.616-0.738,1.262-1.998,1.353-2.952h-3.689c-0.154,0.584-0.43,1.016-0.769,1.354c-0.554,0.554-1.23,0.77-2.337,0.77
			c-1.045,0-1.814-0.461-2.368-0.984c-0.768-0.736-1.199-1.906-1.167-3.137h10.7C112.938,288.955,112.969,288.216,112.969,288.216
			 M95.196,296.088v-10.793c0-3.318-1.782-5.596-5.196-5.596c-2.152,0-3.874,0.953-4.828,2.613
			c-0.799-1.631-2.336-2.613-4.582-2.613c-2.121,0-3.658,1.046-4.55,2.521l-0.308-2.123h-3.198v15.989h3.812v-8.731
			c0-1.998,0.984-4.306,3.167-4.306c1.938,0,2.46,1.138,2.46,3.106v9.931h3.812v-8.731c0-1.998,0.954-4.306,3.137-4.306
			c1.937,0,2.459,1.138,2.459,3.106v9.931L95.196,296.088L95.196,296.088z M64.356,289.723c0,2.368-1.69,3.659-4.089,3.659
			c-1.199,0-2.276-0.769-2.276-1.998c0-1.292,1.138-1.997,2.307-2.092l4.058-0.308V289.723z M69.492,295.902v-2.828
			c0,0-0.246,0.062-0.492,0.062c-0.646,0-0.891-0.277-0.891-1.017v-5.935c0-1.076-0.061-2.213-0.461-3.229
			c-0.923-2.398-3.26-3.26-5.996-3.26c-3.567,0-6.426,1.599-6.643,5.195h3.721c0.093-1.476,1.138-2.274,2.922-2.274
			c2.183,0,2.705,1.015,2.705,2.521v0.983l-4.704,0.338c-3.045,0.216-5.411,1.97-5.411,5.013c0,2.613,1.966,5.012,5.78,5.012
			c2.275,0,4.12-1.105,4.858-2.397c0.123,1.199,1.045,2.245,2.705,2.245C68.508,296.334,68.847,296.18,69.492,295.902
			 M52.458,290.432h-3.782c-0.03,0.584-0.215,1.074-0.461,1.476c-0.462,0.707-1.292,1.198-2.46,1.198
			c-1.045,0-1.814-0.461-2.336-1.015c-0.922-1.016-1.077-2.521-1.077-4.026c0-1.508,0.154-3.045,1.077-4.06
			c0.522-0.554,1.291-0.983,2.336-0.983c1.168,0,1.999,0.49,2.46,1.197c0.246,0.4,0.431,0.893,0.461,1.477h3.782
			c-0.062-1.26-0.492-2.521-1.23-3.475c-1.107-1.384-3.043-2.521-5.474-2.521c-2.429,0-4.458,1.168-5.564,2.521
			c-1.199,1.508-1.753,3.506-1.753,5.844c0,2.336,0.554,4.334,1.753,5.84c1.106,1.354,3.136,2.521,5.564,2.521
			c2.43,0,4.367-1.138,5.474-2.521C51.966,292.952,52.396,291.691,52.458,290.432"/>
	</g>
	<g>
		<path fill="#EC1B33" d="M172.987,264.766v-10.668c0-3.322-1.999-5.721-5.412-5.721c-1.844,0-3.75,0.77-4.704,2.461l-0.277-2.062
			h-3.229v15.99h3.843v-6.519c0-1.354-0.03-3.015,0.523-4.274c0.523-1.169,1.414-2.029,2.767-2.029c2.029,0,2.644,1.139,2.644,3.014
			v9.809H172.987L172.987,264.766z M154.847,248.775h-3.906v15.99h3.906V248.775z M154.938,242.596h-4.121v3.969h4.121V242.596z
			 M136.582,258.4c0,2.367-1.69,3.66-4.089,3.66c-1.199,0-2.275-0.771-2.275-1.998c0-1.293,1.137-2,2.306-2.092l4.058-0.309V258.4z
			 M141.718,264.581v-2.828c0,0-0.246,0.062-0.492,0.062c-0.646,0-0.893-0.276-0.893-1.017v-5.934c0-1.077-0.061-2.214-0.461-3.229
			c-0.922-2.398-3.259-3.26-5.996-3.26c-3.567,0-6.426,1.6-6.641,5.195h3.719c0.093-1.475,1.138-2.273,2.922-2.273
			c2.183,0,2.705,1.016,2.705,2.521v0.982l-4.704,0.338c-3.044,0.215-5.412,1.969-5.412,5.012c0,2.613,1.968,5.014,5.78,5.014
			c2.275,0,4.12-1.107,4.858-2.398c0.123,1.199,1.045,2.246,2.706,2.246C140.733,265.014,141.072,264.857,141.718,264.581
			 M125.575,252.344v-3.689c-0.399-0.062-0.799-0.092-1.199-0.092c-1.875,0-3.782,0.769-4.521,2.612l-0.337-2.397h-3.26v15.988
			h3.875v-8.056c0-2.582,1.415-4.521,4.12-4.521C124.685,252.189,125.146,252.252,125.575,252.344 M109.126,255.173h-6.919
			c0.032-1.045,0.277-1.784,0.831-2.491c0.553-0.736,1.506-1.229,2.674-1.229c1.107,0,1.906,0.37,2.429,0.923
			C108.756,253.052,109.095,253.975,109.126,255.173 M112.969,256.895c0.062-1.998-0.215-3.812-1.384-5.564
			c-1.321-1.999-3.474-2.952-5.842-2.952c-2.183,0-3.904,0.799-5.104,2.029c-1.538,1.567-2.307,3.845-2.307,6.396
			c0,2.614,0.861,4.859,2.459,6.396c1.262,1.199,2.86,1.969,5.043,1.969c2.029,0,4.028-0.646,5.38-2.245
			c0.616-0.737,1.262-1.999,1.353-2.952h-3.689c-0.154,0.586-0.43,1.016-0.769,1.354c-0.554,0.554-1.23,0.769-2.337,0.769
			c-1.045,0-1.814-0.461-2.368-0.982c-0.768-0.739-1.199-1.907-1.167-3.137h10.7C112.938,257.633,112.969,256.895,112.969,256.895
			 M95.196,264.766v-10.791c0-3.322-1.782-5.598-5.196-5.598c-2.152,0-3.874,0.953-4.828,2.613
			c-0.799-1.629-2.336-2.613-4.582-2.613c-2.121,0-3.658,1.047-4.55,2.521l-0.308-2.123h-3.198v15.99h3.812v-8.732
			c0-1.998,0.984-4.305,3.167-4.305c1.938,0,2.46,1.139,2.46,3.104v9.933h3.812v-8.732c0-1.998,0.954-4.305,3.137-4.305
			c1.937,0,2.459,1.139,2.459,3.104v9.933H95.196L95.196,264.766z M64.356,258.4c0,2.367-1.69,3.66-4.089,3.66
			c-1.199,0-2.276-0.771-2.276-1.998c0-1.293,1.138-2,2.307-2.092l4.058-0.309V258.4z M69.492,264.581v-2.828
			c0,0-0.246,0.062-0.492,0.062c-0.646,0-0.891-0.276-0.891-1.017v-5.934c0-1.077-0.061-2.214-0.461-3.229
			c-0.923-2.398-3.26-3.26-5.996-3.26c-3.567,0-6.426,1.6-6.643,5.195h3.721c0.093-1.475,1.138-2.273,2.922-2.273
			c2.183,0,2.705,1.016,2.705,2.521v0.982l-4.704,0.338c-3.045,0.215-5.411,1.969-5.411,5.012c0,2.613,1.966,5.014,5.78,5.014
			c2.275,0,4.12-1.107,4.858-2.398c0.123,1.199,1.045,2.246,2.705,2.246C68.508,265.014,68.847,264.857,69.492,264.581
			 M52.458,259.107h-3.782c-0.03,0.584-0.215,1.076-0.461,1.477c-0.462,0.707-1.292,1.199-2.46,1.199
			c-1.045,0-1.814-0.461-2.336-1.016c-0.922-1.015-1.077-2.521-1.077-4.027c0-1.506,0.154-3.043,1.077-4.059
			c0.522-0.555,1.291-0.983,2.336-0.983c1.168,0,1.999,0.491,2.46,1.198c0.246,0.399,0.431,0.892,0.461,1.477h3.782
			c-0.062-1.262-0.492-2.521-1.23-3.475c-1.107-1.383-3.043-2.521-5.474-2.521c-2.429,0-4.458,1.169-5.564,2.521
			c-1.199,1.506-1.753,3.506-1.753,5.842c0,2.338,0.554,4.336,1.753,5.843c1.106,1.353,3.136,2.521,5.564,2.521
			c2.43,0,4.367-1.138,5.474-2.521C51.966,261.63,52.396,260.368,52.458,259.107"/>
	</g>
	<g>
		<path fill="#EC1B33" d="M174.556,227.079c0,2.366-1.69,3.659-4.089,3.659c-1.199,0-2.276-0.77-2.276-1.999
			c0-1.291,1.138-1.999,2.307-2.091l4.058-0.309V227.079z M179.691,233.26v-2.828c0,0-0.246,0.061-0.492,0.061
			c-0.646,0-0.891-0.275-0.891-1.014v-5.936c0-1.076-0.061-2.214-0.461-3.229c-0.923-2.398-3.26-3.26-5.996-3.26
			c-3.567,0-6.427,1.6-6.643,5.196h3.721c0.093-1.476,1.138-2.274,2.922-2.274c2.183,0,2.705,1.015,2.705,2.521v0.984l-4.704,0.338
			c-3.044,0.215-5.411,1.968-5.411,5.012c0,2.613,1.966,5.012,5.78,5.012c2.275,0,4.12-1.107,4.858-2.398
			c0.123,1.199,1.045,2.246,2.706,2.246C178.708,233.689,179.046,233.536,179.691,233.26 M157.615,225.419
			c0,2.306-0.616,5.166-3.629,5.166c-1.199,0-2.029-0.554-2.583-1.262c-0.8-1.046-1.015-2.521-1.015-3.904s0.215-2.829,1.015-3.875
			c0.554-0.707,1.384-1.261,2.583-1.261C156.999,220.283,157.615,223.111,157.615,225.419 M161.274,233.443v-22.199h-3.843v7.318
			c-0.677-0.832-2.152-1.508-4.182-1.508c-1.631,0-2.922,0.491-3.906,1.291c-1.906,1.568-2.859,3.997-2.859,7.135
			c0,3.013,0.922,5.412,2.829,6.979c0.984,0.8,2.306,1.354,3.905,1.354c1.752,0,3.537-0.646,4.49-2.121l0.246,1.752H161.274
			L161.274,233.443z M133.293,227.079c0,2.366-1.691,3.659-4.09,3.659c-1.199,0-2.274-0.77-2.274-1.999
			c0-1.291,1.138-1.999,2.307-2.091l4.058-0.309L133.293,227.079L133.293,227.079z M138.429,233.26v-2.828
			c0,0-0.247,0.061-0.493,0.061c-0.646,0-0.891-0.275-0.891-1.014v-5.936c0-1.076-0.062-2.214-0.462-3.229
			c-0.922-2.398-3.259-3.26-5.996-3.26c-3.566,0-6.426,1.6-6.641,5.196h3.721c0.092-1.476,1.137-2.274,2.92-2.274
			c2.184,0,2.706,1.015,2.706,2.521v0.984l-4.705,0.338c-3.044,0.215-5.412,1.968-5.412,5.012c0,2.613,1.968,5.012,5.781,5.012
			c2.275,0,4.12-1.107,4.858-2.398c0.123,1.199,1.045,2.246,2.705,2.246C137.445,233.689,137.782,233.536,138.429,233.26
			 M121.395,227.787h-3.782c-0.03,0.584-0.215,1.076-0.462,1.477c-0.461,0.707-1.291,1.198-2.459,1.198
			c-1.046,0-1.814-0.462-2.338-1.017c-0.921-1.014-1.076-2.521-1.076-4.026c0-1.508,0.154-3.044,1.076-4.06
			c0.523-0.553,1.292-0.982,2.338-0.982c1.168,0,1.998,0.491,2.459,1.199c0.247,0.398,0.432,0.891,0.462,1.476h3.782
			c-0.062-1.261-0.493-2.522-1.23-3.475c-1.107-1.384-3.045-2.522-5.473-2.522c-2.429,0-4.458,1.17-5.566,2.522
			c-1.199,1.506-1.753,3.505-1.753,5.842s0.554,4.336,1.753,5.842c1.107,1.354,3.137,2.521,5.566,2.521
			c2.428,0,4.366-1.138,5.473-2.521C120.902,230.309,121.333,229.047,121.395,227.787 M103.961,217.455h-3.906v15.988h3.906V217.455
			z M104.053,211.273h-4.121v3.968h4.121V211.273z M96.704,228.493c0-2.521-1.845-4.119-4.365-4.521
			c-1.568-0.246-1.968-0.277-3.414-0.462c-0.861-0.122-1.845-0.46-1.845-1.599c0-0.83,0.553-1.414,1.229-1.689
			c0.584-0.246,1.108-0.246,1.662-0.246c0.799,0,1.629,0.276,2.09,0.736c0.369,0.398,0.645,0.893,0.645,1.508h3.66
			c0-1.169-0.554-2.369-1.415-3.291c-1.168-1.26-3.106-1.876-5.012-1.876c-1.998,0-3.69,0.585-4.858,1.601
			c-0.954,0.83-1.63,1.968-1.63,3.598c0,2.029,1.476,3.812,3.659,4.273c1.414,0.309,3.013,0.398,4.428,0.613
			c0.983,0.154,1.599,0.771,1.599,1.692c0,1.753-1.968,2.028-3.26,2.028c-1.106,0-1.814-0.215-2.429-0.707
			c-0.492-0.398-0.861-1.168-0.861-1.875H82.99c0,1.507,0.769,2.828,1.691,3.721c1.323,1.261,3.137,1.845,5.166,1.845
			c2.184,0,4.182-0.554,5.473-1.845C96.151,231.169,96.704,230.031,96.704,228.493 M79.793,233.443v-15.988H75.95v8.456
			c0,1.291-0.247,2.735-1.169,3.597c-0.461,0.463-1.077,0.801-1.968,0.801c-2.028,0-2.767-1.168-2.767-3.045v-9.809h-3.844v10.669
			c0,3.413,2.121,5.72,5.535,5.72c2.029,0,3.813-0.923,4.581-2.49l0.277,2.092h3.198V233.443z M62.205,233.443V222.65
			c0-3.32-1.784-5.596-5.196-5.596c-2.153,0-3.874,0.953-4.827,2.613c-0.8-1.63-2.337-2.613-4.582-2.613
			c-2.123,0-3.659,1.045-4.551,2.521l-0.307-2.122h-3.198v15.989h3.812v-8.733c0-1.998,0.984-4.304,3.167-4.304
			c1.937,0,2.459,1.137,2.459,3.104v9.934h3.813v-8.733c0-1.998,0.954-4.304,3.136-4.304c1.937,0,2.46,1.137,2.46,3.104v9.934
			H62.205L62.205,233.443z"/>
	</g>
</g>
<g>
	<line fill="none" stroke="#F7941D" stroke-width="2.674" x1="359.401" y1="183.021" x2="36.485" y2="183.021"/>
	<g>
		<g>
			<defs>
				<rect id="SVGID_1_" x="30.785" y="41.08" width="331.376" height="127.951"/>
			</defs>
			<clipPath id="SVGID_2_">
				<use xlink:href="#SVGID_1_"  overflow="visible"/>
			</clipPath>
			<g clip-path="url(#SVGID_2_)">
				<path fill="#F7941D" d="M70.902,137.36c-1.97,3.169-5.992,8.177-8.536,8.275c0.01-0.21,0.124-0.858,0.839-2.72l6.309-18.215
					c0.842-2.406,1.452-3.932,1.941-5.158c0.15-0.375,0.289-0.722,0.418-1.055l0.293-0.754l-0.806,0.073
					c-0.845,0.076-1.876,0.076-2.874,0.076c-1.001,0-1.792,0-2.636-0.076l-0.395-0.036l-0.125,0.376
					c-0.229,0.687-0.438,1.383-0.663,2.135c-0.394,1.316-0.84,2.808-1.541,4.709l-2.881,7.807
					c-1.591,2.716-9.535,12.687-13.21,12.687c-0.762,0-0.918-0.336-0.918-0.84c0-0.499,0.401-1.634,0.789-2.731
					c0.149-0.423,0.304-0.859,0.444-1.282l5.048-14.277l0.254-0.729c0.665-1.895,1.352-3.855,1.352-5.193
					c0-1.38-0.717-3.024-4.13-3.024c-4.701,0-9.197,4.758-10.635,8.193l-0.165,0.393l2.056,1.286l0.263-0.438
					c1.432-2.387,3.667-4.804,5.169-4.804c0.396,0,0.524,0.127,0.524,0.524c0,1.291-1.205,4.672-2.257,7.48l-3.861,10.715
					l-0.333,0.855c-0.747,1.899-1.593,4.051-1.593,5.713c0,1.336,0.537,3.577,4.129,3.577c5.41,0,11.397-6.244,15.204-11.472
					l-1.169,3.24c-0.145,0.435-0.297,0.864-0.447,1.285c-0.513,1.442-0.998,2.804-0.998,3.921c0,1.923,1.333,3.025,3.656,3.025
					c6.306,0,12.265-9.083,13.855-12.265l0.219-0.438l-2.346-1.235L70.902,137.36z"/>
				<path fill="#F7941D" d="M278.51,111.058c2.647,0,4.287-2.511,4.287-4.838c0-2.245-1.567-3.812-3.813-3.812
					c-2.731,0-4.365,2.38-4.365,4.681C274.617,109.388,276.255,111.058,278.51,111.058z"/>
				<path fill="#F7941D" d="M108.831,137.28c-2.125,3.511-6.424,8.822-8.64,8.822c-0.019,0-0.036,0-0.05,0
					c0.021-1,0.381-1.439,0.646-2.083c0.121-0.294,0.241-0.702,0.342-0.963l6.234-15.445c0.141-0.366,0.294-0.776,0.451-1.166
					c0.728-1.809,1.553-3.873,1.553-5.523c0-1.691-1.084-3.505-4.129-3.505c-5.714,0-12.508,6.822-16.291,11.776l1.467-4.182
					c0.095-0.284,0.199-0.579,0.306-0.878c0.444-1.25,0.903-2.543,0.903-3.698c0-1.505-1.204-3.024-3.893-3.024
					c-4.589,0-9.155,4.844-10.557,8.193l-0.165,0.393l2.057,1.286l0.263-0.438c1.432-2.387,3.668-4.804,5.169-4.804
					c0.392,0,0.524,0.132,0.524,0.524c0,1.292-1.205,4.673-2.257,7.48l-4.73,13.085c-1.169,3.121-1.878,4.934-2.502,6.182
					l-0.403,0.805l0.897-0.082c0.845-0.077,2.005-0.077,3.03-0.077c1.003,0,1.87,0,2.715,0.077l0.411,0.038l0.392-1.355
					c0.471-1.646,1.004-3.511,1.921-5.868l2.723-7.334c1.466-2.501,10.514-12.765,14.236-12.765c0.762,0,0.918,0.336,0.918,0.84
					c0,0.858-0.739,2.725-1.538,4.617l-6.568,15.667c-0.56,1.359-0.963,2.341-0.963,3.375c0,1.541,1.082,3.341,4.129,3.341
					c6.047,0,11.656-8.022,13.777-12.265l0.219-0.439l-2.351-1.123L108.831,137.28z"/>
				<path fill="#F7941D" d="M155.772,117.25c-4.159,0-7.259,2.504-9.084,4.527c0.073-0.401,0.121-0.813,0.121-1.211
					c-0.102-2.037-1.4-3.158-3.655-3.158c-4.65,0-9.119,4.758-10.558,8.193l-0.165,0.393l2.056,1.286l0.263-0.438
					c1.432-2.387,3.667-4.804,5.169-4.804c0.5,0,0.525,0.161,0.525,0.446c0,0.911-0.654,2.824-1.411,5.039
					c-0.275,0.804-0.566,1.656-0.85,2.527l-10.333,30.208c-0.99,2.969-1.587,4.414-2.515,5.126c-0.974,0.765-2.107,0.92-4.439,0.996
					l-0.366,0.012l-0.76,2.663l2.886-0.066c2.567-0.06,4.595-0.107,6.378-0.107c2.247,0,7.354,0.082,10.715,0.158l0.387,0.009
					l0.751-2.632l-3.386-0.191c-3.086-0.172-4.18-0.702-4.18-2.023c0-0.76,0.167-1.528,0.683-3.151l3.156-9.309
					c0.411-1.232,0.875-2.702,1.193-3.724c0.717,1.363,2.17,2.805,5.113,2.805c4.813,0,10.217-3.768,14.449-10.073
					c3.365-4.843,5.375-10.434,5.375-14.955C163.292,120.284,160.622,117.25,155.772,117.25z M152.562,139.135
					c-2.834,5.67-6.036,8.793-9.015,8.793c-3.185,0-3.584-2.896-3.599-4.232l5.005-15.409c2.822-4.875,5.93-7.669,8.53-7.669
					c2.323,0,2.811,2.687,2.811,4.94C156.295,129.193,154.83,134.524,152.562,139.135z"/>
				<path fill="#F7941D" d="M321.511,137.36c-2.126,3.419-6.138,8.488-8.615,8.59c0.019-0.281,0.234-0.907,0.429-1.462
					c0.146-0.42,0.3-0.753,0.414-1.154l7.062-21.232h6.988l1.634-3.925l-0.813-0.089c-0.024,0.001-2.457,0.015-4.7,0.015h-1.892
					l0.158-0.357c0.346-1.037,1.04-2.861,1.499-4.097l0.698-1.88l-0.884,0.197c-1.421,0.3-4.294,0.39-5.542,0.312l-0.405-0.023
					l-0.108,0.393c-0.394,1.413-0.787,2.511-1.33,4.136l-0.512,1.318h-5.078l-0.983,4h4.851l-6.957,20.68
					c-0.154,0.466-0.32,0.872-0.48,1.32c-0.518,1.447-0.965,2.669-0.963,3.672c0.05,0.949,0.545,3.142,4.051,3.142
					c6.304,0,12.264-9.089,13.854-12.271l0.221-0.442l-2.346-1.237L321.511,137.36z"/>
				<path fill="#F7941D" d="M280.188,137.878l-2.449-1.227l-0.238,0.401c-2.02,3.396-6.115,8.385-8.682,8.58
					c0.064-0.436,0.438-1.329,0.742-2.063l7.494-18.456c0.633-1.581,1.219-3.223,1.219-4.548c-0.069-1.44-0.815-3.158-3.973-3.158
					c-4.628,0-9.193,4.753-10.711,8.185L263.41,126l2.165,1.274l0.252-0.443c1.316-2.324,3.548-4.794,5.084-4.794
					c0.46,0,0.551,0.123,0.604,0.446c0,0.872-0.889,3.351-2.643,7.375l-5.921,13.975l-0.179,0.448
					c-0.354,0.889-0.725,1.807-0.725,3.044c0,1.951,1.628,3.262,4.051,3.262c7.233,0,13.195-11.002,13.853-12.256L280.188,137.878z"
					/>
				<path fill="#F7941D" d="M256.683,137.28c-2.125,3.512-6.425,8.822-8.642,8.822c-0.021,0-0.036,0-0.05,0
					c0.021-1,0.383-1.446,0.648-2.094c0.119-0.291,0.238-0.694,0.338-0.953l6.233-15.445c0.142-0.366,0.294-0.775,0.451-1.165
					c0.729-1.809,1.555-3.874,1.555-5.524c0-1.691-1.085-3.505-4.129-3.505c-5.713,0-12.507,6.82-16.291,11.774l1.468-4.181
					c0.096-0.288,0.201-0.587,0.31-0.89c0.44-1.246,0.899-2.534,0.899-3.686c0-1.505-1.205-3.024-3.894-3.024
					c-4.589,0-9.156,4.844-10.56,8.193l-0.164,0.393l2.057,1.286l0.263-0.438c1.435-2.388,3.671-4.805,5.171-4.805
					c0.391,0,0.522,0.132,0.522,0.524c0,1.294-1.204,4.674-2.257,7.48l-4.73,13.085c-1.165,3.111-1.872,4.922-2.501,6.182
					l-0.401,0.805l0.896-0.082c0.843-0.077,2.005-0.077,3.028-0.077c1.004,0,1.871,0,2.716,0.077l0.412,0.038l0.38-1.318
					c0.473-1.655,1.009-3.53,1.933-5.906l2.722-7.333c1.469-2.502,10.521-12.765,14.236-12.765c0.762,0,0.917,0.336,0.917,0.84
					c0,0.863-0.737,2.729-1.538,4.617l-6.559,15.647c-0.564,1.368-0.973,2.356-0.973,3.395c0,1.541,1.082,3.341,4.131,3.341
					c6.047,0,11.654-8.022,13.775-12.265l0.219-0.439l-2.351-1.123L256.683,137.28z"/>
				<path fill="#F7941D" d="M359.847,136.963l-0.246,0.397c-2.104,3.384-6.363,8.281-8.564,8.281c-0.02,0-0.036,0-0.051-0.001
					c0.018-0.404,0.381-1.362,0.703-2.21c0.186-0.491,0.377-0.995,0.531-1.458l4.889-13.958c0.574-1.62,1.07-3.041,1.508-4.288
					c0.877-2.509,1.511-4.322,2.033-5.629l0.309-0.768l-0.823,0.083c-0.765,0.077-2.019,0.077-2.554,0.077
					c-0.797,0-1.55,0-2.314-0.077l-0.377-0.038l-0.785,1.991c-0.854-1.092-2.283-1.719-4.016-1.719
					c-6.188,0-13.066,6.545-17.441,12.671c-3.812,5.336-6.088,10.811-6.088,14.644c0,3.944,1.813,5.943,5.392,5.943
					c5.853,0,11.353-5.474,14.61-9.997l-0.969,2.79c-0.098,0.291-0.214,0.602-0.334,0.922c-0.374,0.996-0.798,2.125-0.797,3.123
					c0.085,2.009,1.504,3.162,3.893,3.162c6.143,0,11.914-8.853,13.619-12.265l0.221-0.439L359.847,136.963z M335.813,145.956
					c-0.961,0-1.942-0.306-1.942-2.575c0-2.797,1.937-7.923,4.817-12.753c3.953-6.557,7.834-10.168,10.927-10.168
					c1.786,0,2.811,0.967,2.811,2.654c0,0.292,0,0.569-0.05,0.78l-2.367,6.781C347.403,138.102,338.903,145.956,335.813,145.956z"/>
				<path fill="#F7941D" d="M296.856,117.25c-6.74,0-10.912,5.132-10.912,9.886c0,2.387,0.923,4.512,2.814,6.493l3.948,4.263
					c1.386,1.458,2.147,3.128,2.147,4.703c0,2.569-1.595,5.334-5.097,5.334c-2.594,0-3.262-1.677-3.97-3.452
					c-0.591-1.482-1.202-3.016-3.05-3.016c-1.477,0-2.275,0.793-2.688,1.458c-0.686,1.109-0.724,2.571-0.363,3.29
					c1.082,2.165,4.039,4.693,8.81,4.693c7.521,0,12.016-5.508,12.016-10.833c0-2.474-1.051-4.804-3.206-7.119l-3.794-4.188
					c-1.54-1.626-2.227-3.053-2.227-4.624c0-2.352,1.706-3.995,4.149-3.995c1.834,0,2.506,1.248,3.215,2.569
					c0.625,1.162,1.334,2.479,2.938,2.479c1.694,0,2.789-1.249,2.789-3.183c0-0.991-0.368-1.997-0.938-2.563
					C302.106,118.112,299.521,117.25,296.856,117.25z"/>
				<path fill="#F7941D" d="M218.909,137.36c-2.104,3.384-6.365,8.281-8.564,8.281c-0.02,0-0.035,0-0.051-0.001
					c0.018-0.403,0.379-1.357,0.699-2.201c0.188-0.494,0.379-1.001,0.533-1.467l4.89-13.958c0.585-1.649,1.09-3.091,1.531-4.355
					c0.866-2.478,1.491-4.267,2.011-5.563l0.307-0.768l-0.822,0.083c-0.764,0.077-2.018,0.077-2.553,0.077
					c-0.798,0-1.552,0-2.314-0.077l-0.377-0.038l-0.785,1.991c-0.854-1.092-2.284-1.719-4.016-1.719
					c-6.188,0-13.067,6.545-17.441,12.671c-3.812,5.335-6.087,10.81-6.087,14.644c0,3.944,1.813,5.943,5.391,5.943
					c5.851,0,11.349-5.472,14.608-9.994l-0.969,2.788c-0.096,0.29-0.213,0.599-0.332,0.917c-0.373,0.998-0.797,2.127-0.797,3.127
					c0.084,2.009,1.504,3.162,3.894,3.162c6.146,0,11.914-8.853,13.618-12.265l0.22-0.439l-2.346-1.235L218.909,137.36z
					 M195.123,145.956c-0.961,0-1.943-0.306-1.943-2.575c0-2.799,1.937-7.925,4.818-12.753c3.953-6.557,7.834-10.168,10.927-10.168
					c1.786,0,2.811,0.967,2.811,2.654c0,0.292,0,0.569-0.051,0.781l-2.365,6.781C206.712,138.102,198.211,145.956,195.123,145.956z"
					/>
				<path fill="#F7941D" d="M181.996,137.053c-2.018,3.396-6.112,8.386-8.679,8.58c0.064-0.434,0.433-1.321,0.742-2.063
					l7.493-18.456c0.633-1.583,1.219-3.228,1.219-4.547c-0.069-1.441-0.814-3.159-3.972-3.159c-4.629,0-9.195,4.753-10.711,8.185
					L167.907,126l2.165,1.274l0.251-0.444c1.317-2.324,3.546-4.793,5.084-4.793c0.46,0,0.551,0.123,0.603,0.446
					c0,0.873-0.888,3.353-2.642,7.375l-5.921,13.975l-0.178,0.45c-0.355,0.888-0.723,1.806-0.723,3.042
					c0,1.951,1.628,3.262,4.051,3.262c7.236,0,13.195-11.002,13.851-12.256l0.237-0.453l-2.451-1.226L181.996,137.053z"/>
				<path fill="#F7941D" d="M183.48,102.406c-2.732,0-4.365,2.38-4.365,4.681c0,2.3,1.637,3.97,3.893,3.97
					c2.647,0,4.286-2.511,4.286-4.838C187.293,103.974,185.725,102.406,183.48,102.406z"/>
				<path fill="#F7941D" d="M145.724,69.919c0-5.23-2.712-8.229-7.441-8.229c-10.388,0-21.794,12.728-21.794,24.318
					c0,5.968,3.035,9.255,8.545,9.255C136.455,95.264,145.724,79.928,145.724,69.919z M135.996,64.9
					c2.466,0,2.732,3.345,2.732,4.784c0,9.977-7.562,22.605-12.196,22.605c-1.409,0-3.283-0.618-3.283-5.965
					c0-3.924,1.589-9.328,4.048-13.767C129.992,67.691,133.163,64.9,135.996,64.9z"/>
				<path fill="#F7941D" d="M194.906,95.343c5.85,0,11.35-5.474,14.608-9.997l-0.969,2.791c-0.098,0.293-0.215,0.606-0.336,0.929
					c-0.372,0.993-0.794,2.119-0.793,3.114c0.083,2.01,1.501,3.162,3.893,3.162c6.143,0,11.914-8.853,13.619-12.265l0.221-0.439
					l-2.348-1.235l-0.246,0.396c-2.104,3.384-6.365,8.281-8.563,8.281c-0.021,0-0.036,0-0.052-0.001
					c0.019-0.403,0.379-1.355,0.699-2.198c0.187-0.495,0.379-1.003,0.534-1.47l4.89-13.958c0.582-1.641,1.084-3.078,1.524-4.337
					c0.869-2.486,1.497-4.282,2.019-5.581l0.308-0.768l-0.823,0.083c-0.765,0.077-2.019,0.077-2.554,0.077
					c-0.763,0-1.552,0-2.315-0.077l-0.377-0.038l-0.785,1.991c-0.854-1.092-2.283-1.719-4.014-1.719
					c-6.188,0-13.068,6.545-17.444,12.671c-3.811,5.336-6.086,10.811-6.086,14.644C189.514,93.343,191.328,95.343,194.906,95.343z
					 M212.571,64.9c1.785,0,2.81,0.967,2.81,2.654c0,0.292,0,0.569-0.05,0.781l-2.366,6.782
					c-2.604,7.425-11.106,15.279-14.195,15.279c-0.961,0-1.943-0.306-1.943-2.575c0-2.8,1.937-7.926,4.818-12.753
					C205.599,68.512,209.479,64.9,212.571,64.9z"/>
				<path fill="#F7941D" d="M177.333,66.102l-6.955,20.901c-0.155,0.464-0.319,0.978-0.479,1.424
					c-0.519,1.449-0.967,2.729-0.966,3.732c0.05,0.949,0.543,3.17,4.05,3.17c6.306,0,12.265-9.076,13.855-12.258l0.219-0.436
					l-2.346-1.233l-0.246,0.398c-2.125,3.418-6.135,8.487-8.614,8.59c0.018-0.282,0.235-0.909,0.429-1.466
					c0.145-0.418,0.298-0.97,0.412-1.37l7.062-21.454h6.657h0.331l1.635-3.704l-0.815,0.3c-0.024,0.002-2.456,0.404-4.7,0.404
					h-1.891l0.159-0.638c0.341-1.024,1.028-2.968,1.482-4.19l0.714-1.995l-0.883,0.162c-1.42,0.299-4.292,0.374-5.544,0.294
					l-0.405-0.032l-0.109,0.389c-0.39,1.406-0.785,2.783-1.329,4.413l-0.511,1.596h-4.695h-0.383l-0.984,3h0.657h4.193V66.102z"/>
				<path fill="#F7941D" d="M164.208,81.401l-0.247,0.399c-1.831,2.944-5.954,8.486-8.615,8.59c0.018-0.281,0.235-0.908,0.428-1.463
					c0.146-0.419,0.299-0.972,0.414-1.372l7.063-21.454h6.656h0.331l1.636-3.704l-0.815,0.3c-0.024,0.002-2.456,0.404-4.701,0.404
					h-1.891l0.159-0.638c0.348-1.042,1.044-3.013,1.506-4.254l0.691-1.931l-0.884,0.162c-1.419,0.299-4.29,0.374-5.544,0.294
					l-0.405-0.031l-0.109,0.388c-0.386,1.387-0.773,2.745-1.328,4.413l-0.511,1.596h-4.697h-0.383l-0.983,3h0.657h4.193
					l-6.956,20.901c-0.156,0.468-0.322,0.985-0.482,1.435c-0.517,1.445-0.963,2.72-0.962,3.722c0.05,0.949,0.545,3.17,4.049,3.17
					c6.307,0,12.265-9.076,13.855-12.258l0.219-0.436L164.208,81.401z"/>
				<path fill="#F7941D" d="M104.058,86.407l10.175-29.971c2.012-6.037,3.8-11.228,5.311-13.613l0.195-0.309l-1.216-1.461
					l-0.296,0.064c-1.868,0.4-7.423,0.91-12,1.252l-0.487,0.073l0.125,2.659h5.897c-0.331,1-0.867,2.766-1.518,4.744l-0.751,2.274
					c-0.028,0.087-2.528,7.9-3.642,11.476c-0.883-0.955-2.25-1.507-3.845-1.507c-6.188,0-13.068,6.543-17.444,12.669
					c-3.812,5.336-6.087,10.809-6.087,14.643c0,0.921,0.099,1.735,0.296,2.443l-0.209-0.024c-0.37-0.042-0.736-0.073-1.096-0.103
					c-1.571-0.128-2.927-0.239-3.757-1.345c-0.862-1.222-1.098-4.008-1.25-6.526l-1.735-27.053l-0.011-0.159
					c-0.39-5.383-0.699-9.636-0.776-12.047L69.921,44.1h-2.345l-0.146,0.242c-0.854,1.408-2.146,3.464-3.728,5.979
					c-1.34,2.13-2.887,4.591-4.549,7.265l-16.716,26.73l-0.687,1.069c-1.35,2.112-2.416,3.78-3.764,4.873
					c-1.745,1.292-3.483,1.396-5.323,1.506c-0.268,0.016-0.536,0.032-0.804,0.052l-0.349,0.025l-0.757,2.646l3.434-0.079
					c2.202-0.053,3.921-0.094,5.516-0.094c1.802,0,3.902,0.048,6.562,0.109l2.567,0.057l0.75-2.624l-0.618-0.042
					c-0.259-0.018-0.535-0.033-0.82-0.048c-2.488-0.134-4.548-0.351-4.548-1.66c0-0.423,0.193-1.257,1.113-2.82
					c0.364-0.619,0.745-1.271,1.525-2.504c0.891-1.408,2.299-3.683,4.788-7.683h14.317l0.363,5.422
					c0.156,2.19,0.156,3.474,0.156,4.485c0,4.077-1.536,4.247-4.594,4.561l-2.786,0.275l-0.753,2.642l0.68-0.013
					c3.495-0.076,8.062-0.157,10.4-0.157c2.045,0,4.854,0.062,8.105,0.134l1.497,0.033l0.576-2.014
					c0.767,1.91,2.4,2.874,4.884,2.874c5.299,0,10.944-4.8,14.685-9.985l-0.964,2.778c-0.097,0.291-0.213,0.6-0.333,0.92
					c-0.374,0.997-0.797,2.126-0.797,3.125c0.06,1.442,0.744,3.162,3.656,3.162c6.206,0,11.992-8.853,13.698-12.265l0.219-0.439
					l-2.347-1.235l-0.246,0.396c-2.103,3.384-6.363,8.281-8.564,8.281c-0.019,0-0.036,0-0.05-0.001
					c0.018-0.402,0.378-1.354,0.697-2.196C103.708,87.388,103.9,86.879,104.058,86.407z M56.22,68.737
					c3.547-5.804,6.264-10.425,7.822-13.251c0.193,3.895,0.655,12.043,0.712,12.958l0.36,5.658H52.979L56.22,68.737z M101.533,64.9
					c1.787,0,2.811,0.967,2.811,2.654c0,0.292,0,0.568-0.051,0.781l-2.365,6.782C99.32,82.542,90.82,90.396,87.731,90.396
					c-0.961,0-1.944-0.306-1.944-2.575c0-2.799,1.937-7.925,4.817-12.753C94.56,68.512,98.441,64.9,101.533,64.9z"/>
			</g>
		</g>
	</g>
</g>
</svg>
