<?xml version="1.0" encoding="UTF-8" standalone="no"?>
<!-- Generator: Adobe Illustrator 16.0.0, SVG Export Plug-In . SVG Version: 6.00 Build 0)  -->
<!DOCTYPE svg  PUBLIC '-//W3C//DTD SVG 1.1//EN'  'http://www.w3.org/Graphics/SVG/1.1/DTD/svg11.dtd'>
<svg id="Livello_1" xmlns="http://www.w3.org/2000/svg" xml:space="preserve" height="375.1px" viewBox="0 0 404.729 375.102" width="404.73px" version="1.1" y="0px" x="0px" xmlns:xlink="http://www.w3.org/1999/xlink" enable-background="new 0 0 404.729 375.102">
	<defs>
		<rect id="SVGID_1_" y="8.201" x="8.849" height="358.7" width="387.03"/>
	</defs>
	<clipPath id="SVGID_2_">
		<use overflow="visible" xlink:href="#SVGID_1_"/>
	</clipPath>
	<path fill="#F41C2C" d="m395.4 130.02c0-66.571-53.966-120.54-120.54-120.54-0.486 0-0.966 0.032-1.453 0.038-2.895-0.536-5.969-0.837-9.271-0.837h-254.81v357.74h146.44c0-90.378 57.674-115.99 123.74-115.99 79.11 0.01 115.89-55.4 115.89-120.41" clip-path="url(#SVGID_2_)"/>
	<path stroke="#ED3036" fill="none" d="m395.4 130.02c0-66.571-53.966-120.54-120.54-120.54-0.486 0-0.966 0.032-1.453 0.038-2.895-0.536-5.969-0.837-9.271-0.837h-254.81v357.74h146.44c0-90.378 57.674-115.99 123.74-115.99 79.11 0.01 115.89-55.4 115.89-120.41z" clip-path="url(#SVGID_2_)"/>
	<defs>
		<rect id="SVGID_3_" y="8.201" x="8.849" height="358.7" width="387.03"/>
	</defs>
	<clipPath id="SVGID_4_">
		<use overflow="visible" xlink:href="#SVGID_3_"/>
	</clipPath>
	<path fill="#fff" d="m78.163 321.04c0 2.367-1.691 3.66-4.09 3.66-1.199 0-2.275-0.77-2.275-2 0-1.291 1.138-1.998 2.306-2.091l4.06-0.307v0.74zm5.134 6.19v-2.829s-0.246 0.061-0.491 0.061c-0.646 0-0.893-0.276-0.893-1.014v-5.934c0-1.077-0.061-2.216-0.461-3.229-0.922-2.398-3.259-3.259-5.996-3.259-3.567 0-6.426 1.599-6.642 5.196h3.721c0.092-1.476 1.137-2.275 2.921-2.275 2.183 0 2.706 1.015 2.706 2.521v0.983l-4.705 0.339c-3.043 0.215-5.411 1.968-5.411 5.012 0 2.613 1.968 5.012 5.78 5.012 2.275 0 4.121-1.106 4.858-2.398 0.123 1.199 1.046 2.245 2.706 2.245 0.923 0 1.262-0.16 1.907-0.43m-18.418 0.18v-15.988h-3.843v8.455c0 1.292-0.246 2.737-1.168 3.598-0.461 0.462-1.076 0.8-1.968 0.8-2.029 0-2.766-1.168-2.766-3.045v-9.808h-3.844v10.669c0 3.414 2.122 5.72 5.535 5.72 2.029 0 3.813-0.923 4.582-2.49l0.276 2.09h3.196zm-16.295-0.22v-3.229c-1.046 0.123-1.691 0.154-2.49 0.154-1.231 0-1.784-0.522-1.784-1.753v-7.779h4.028v-3.167h-4.028v-5.013l-3.844 0.954v4.059h-2.92v3.167h2.92v8.117c0 3.075 1.599 4.92 4.829 4.92 1.136 0 2.213-0.15 3.289-0.43" clip-path="url(#SVGID_4_)"/>
	<path fill="#fff" d="m136.58 289.72c0 2.368-1.69 3.659-4.089 3.659-1.199 0-2.275-0.769-2.275-1.998 0-1.292 1.137-1.998 2.306-2.092l4.058-0.307v0.74zm5.14 6.18v-2.828s-0.246 0.062-0.492 0.062c-0.646 0-0.893-0.277-0.893-1.016v-5.934c0-1.077-0.061-2.214-0.461-3.229-0.922-2.398-3.259-3.26-5.996-3.26-3.567 0-6.426 1.599-6.641 5.196h3.719c0.093-1.476 1.138-2.275 2.922-2.275 2.183 0 2.705 1.015 2.705 2.521v0.983l-4.704 0.338c-3.044 0.216-5.412 1.969-5.412 5.013 0 2.613 1.968 5.012 5.78 5.012 2.275 0 4.12-1.106 4.858-2.398 0.123 1.199 1.045 2.245 2.706 2.245 0.91 0.01 1.25-0.14 1.9-0.42m-16.14-12.24v-3.688c-0.399-0.062-0.799-0.093-1.199-0.093-1.875 0-3.782 0.769-4.521 2.613l-0.337-2.398h-3.26v15.989h3.875v-8.056c0-2.583 1.415-4.521 4.12-4.521 0.42 0.01 0.89 0.07 1.32 0.16m-16.45 2.83h-6.919c0.032-1.045 0.277-1.783 0.831-2.489 0.553-0.739 1.506-1.23 2.674-1.23 1.107 0 1.906 0.369 2.429 0.922 0.62 0.68 0.96 1.61 0.99 2.8m3.84 1.73c0.062-1.998-0.215-3.812-1.384-5.564-1.321-1.999-3.474-2.952-5.842-2.952-2.183 0-3.904 0.8-5.104 2.029-1.538 1.568-2.307 3.844-2.307 6.396 0 2.614 0.861 4.858 2.459 6.396 1.262 1.199 2.86 1.968 5.043 1.968 2.029 0 4.028-0.646 5.38-2.244 0.616-0.738 1.262-1.998 1.353-2.952h-3.689c-0.154 0.584-0.43 1.015-0.769 1.354-0.554 0.553-1.23 0.769-2.337 0.769-1.045 0-1.814-0.461-2.368-0.984-0.768-0.737-1.199-1.907-1.167-3.137h10.7c0.01-0.36 0.04-1.1 0.04-1.1m-17.774 7.87v-10.793c0-3.319-1.782-5.596-5.196-5.596-2.152 0-3.874 0.953-4.828 2.613-0.799-1.63-2.336-2.613-4.582-2.613-2.121 0-3.658 1.046-4.55 2.521l-0.308-2.122h-3.198v15.989h3.812v-8.731c0-1.999 0.984-4.306 3.167-4.306 1.938 0 2.46 1.138 2.46 3.106v9.931h3.812v-8.731c0-1.999 0.954-4.306 3.137-4.306 1.937 0 2.459 1.138 2.459 3.106v9.931h3.815zm-30.84-6.37c0 2.368-1.69 3.659-4.089 3.659-1.199 0-2.276-0.769-2.276-1.998 0-1.292 1.138-1.998 2.307-2.092l4.058-0.307v0.74zm5.136 6.18v-2.828s-0.246 0.062-0.492 0.062c-0.646 0-0.891-0.277-0.891-1.016v-5.934c0-1.077-0.061-2.214-0.461-3.229-0.923-2.398-3.26-3.26-5.996-3.26-3.567 0-6.426 1.599-6.643 5.196h3.721c0.093-1.476 1.138-2.275 2.922-2.275 2.183 0 2.705 1.015 2.705 2.521v0.983l-4.704 0.338c-3.045 0.216-5.411 1.969-5.411 5.013 0 2.613 1.966 5.012 5.78 5.012 2.275 0 4.12-1.106 4.858-2.398 0.123 1.199 1.045 2.245 2.705 2.245 0.923 0.01 1.262-0.14 1.907-0.42m-17.034-5.47h-3.782c-0.03 0.584-0.215 1.075-0.461 1.476-0.462 0.707-1.292 1.198-2.46 1.198-1.045 0-1.814-0.46-2.336-1.014-0.922-1.016-1.077-2.521-1.077-4.027 0-1.507 0.154-3.045 1.077-4.059 0.522-0.554 1.291-0.984 2.336-0.984 1.168 0 1.999 0.491 2.46 1.198 0.246 0.4 0.431 0.892 0.461 1.476h3.782c-0.062-1.26-0.492-2.521-1.23-3.474-1.107-1.384-3.043-2.521-5.474-2.521-2.429 0-4.458 1.168-5.564 2.521-1.199 1.507-1.753 3.505-1.753 5.843 0 2.336 0.554 4.335 1.753 5.841 1.106 1.354 3.136 2.521 5.564 2.521 2.43 0 4.367-1.138 5.474-2.521 0.738-0.97 1.168-2.23 1.23-3.49" clip-path="url(#SVGID_4_)"/>
	<path fill="#fff" d="m172.99 264.77v-10.669c0-3.321-1.999-5.72-5.412-5.72-1.844 0-3.75 0.77-4.704 2.461l-0.277-2.062h-3.229v15.989h3.843v-6.518c0-1.354-0.03-3.014 0.523-4.274 0.523-1.169 1.414-2.029 2.767-2.029 2.029 0 2.644 1.138 2.644 3.013v9.809h3.85zm-18.14-15.99h-3.906v15.989h3.906v-15.99zm0.09-6.18h-4.121v3.968h4.121v-3.97zm-18.36 15.8c0 2.368-1.69 3.66-4.089 3.66-1.199 0-2.275-0.77-2.275-1.998 0-1.293 1.137-2 2.306-2.092l4.058-0.308v0.74zm5.14 6.18v-2.828s-0.246 0.062-0.492 0.062c-0.646 0-0.893-0.277-0.893-1.017v-5.934c0-1.077-0.061-2.213-0.461-3.229-0.922-2.398-3.259-3.26-5.996-3.26-3.567 0-6.426 1.599-6.641 5.196h3.719c0.093-1.475 1.138-2.274 2.922-2.274 2.183 0 2.705 1.015 2.705 2.521v0.983l-4.704 0.338c-3.044 0.215-5.412 1.968-5.412 5.012 0 2.613 1.968 5.013 5.78 5.013 2.275 0 4.12-1.107 4.858-2.399 0.123 1.2 1.045 2.246 2.706 2.246 0.91 0 1.25-0.15 1.9-0.43m-16.14-12.24v-3.689c-0.399-0.062-0.799-0.093-1.199-0.093-1.875 0-3.782 0.769-4.521 2.613l-0.337-2.398h-3.26v15.989h3.875v-8.056c0-2.582 1.415-4.521 4.12-4.521 0.42 0.01 0.89 0.07 1.32 0.16m-16.45 2.83h-6.919c0.032-1.045 0.277-1.784 0.831-2.491 0.553-0.737 1.506-1.229 2.674-1.229 1.107 0 1.906 0.37 2.429 0.923 0.62 0.68 0.96 1.6 0.99 2.8m3.84 1.73c0.062-1.998-0.215-3.812-1.384-5.565-1.321-1.999-3.474-2.952-5.842-2.952-2.183 0-3.904 0.799-5.104 2.029-1.538 1.568-2.307 3.845-2.307 6.396 0 2.614 0.861 4.859 2.459 6.396 1.262 1.199 2.86 1.969 5.043 1.969 2.029 0 4.028-0.646 5.38-2.245 0.616-0.738 1.262-1.999 1.353-2.952h-3.689c-0.154 0.585-0.43 1.016-0.769 1.354-0.554 0.554-1.23 0.769-2.337 0.769-1.045 0-1.814-0.461-2.368-0.983-0.768-0.739-1.199-1.907-1.167-3.137h10.7c0.01-0.36 0.04-1.09 0.04-1.09m-17.774 7.87v-10.792c0-3.321-1.782-5.597-5.196-5.597-2.152 0-3.874 0.953-4.828 2.613-0.799-1.629-2.336-2.613-4.582-2.613-2.121 0-3.658 1.047-4.55 2.522l-0.308-2.123h-3.198v15.989h3.812v-8.732c0-1.998 0.984-4.305 3.167-4.305 1.938 0 2.46 1.139 2.46 3.105v9.932h3.812v-8.732c0-1.998 0.954-4.305 3.137-4.305 1.937 0 2.459 1.139 2.459 3.105v9.932h3.815zm-30.84-6.37c0 2.368-1.69 3.66-4.089 3.66-1.199 0-2.276-0.77-2.276-1.998 0-1.293 1.138-2 2.307-2.092l4.058-0.308v0.74zm5.136 6.18v-2.828s-0.246 0.062-0.492 0.062c-0.646 0-0.891-0.277-0.891-1.017v-5.934c0-1.077-0.061-2.213-0.461-3.229-0.923-2.398-3.26-3.26-5.996-3.26-3.567 0-6.426 1.599-6.643 5.196h3.721c0.093-1.475 1.138-2.274 2.922-2.274 2.183 0 2.705 1.015 2.705 2.521v0.983l-4.704 0.338c-3.045 0.215-5.411 1.968-5.411 5.012 0 2.613 1.966 5.013 5.78 5.013 2.275 0 4.12-1.107 4.858-2.399 0.123 1.2 1.045 2.246 2.705 2.246 0.923 0 1.262-0.15 1.907-0.43m-17.034-5.47h-3.782c-0.03 0.584-0.215 1.076-0.461 1.476-0.462 0.707-1.292 1.199-2.46 1.199-1.045 0-1.814-0.461-2.336-1.015-0.922-1.015-1.077-2.521-1.077-4.028 0-1.506 0.154-3.043 1.077-4.059 0.522-0.554 1.291-0.983 2.336-0.983 1.168 0 1.999 0.491 2.46 1.199 0.246 0.399 0.431 0.891 0.461 1.476h3.782c-0.062-1.261-0.492-2.521-1.23-3.474-1.107-1.384-3.043-2.522-5.474-2.522-2.429 0-4.458 1.169-5.564 2.522-1.199 1.505-1.753 3.505-1.753 5.841 0 2.338 0.554 4.336 1.753 5.843 1.106 1.353 3.136 2.521 5.564 2.521 2.43 0 4.367-1.138 5.474-2.521 0.738-0.97 1.168-2.23 1.23-3.49" clip-path="url(#SVGID_4_)"/>
	<path fill="#fff" d="m174.56 227.08c0 2.367-1.69 3.659-4.089 3.659-1.199 0-2.276-0.769-2.276-1.999 0-1.291 1.138-1.999 2.307-2.091l4.058-0.308v0.74zm5.13 6.18v-2.829s-0.246 0.061-0.492 0.061c-0.646 0-0.891-0.275-0.891-1.014v-5.935c0-1.076-0.061-2.214-0.461-3.229-0.923-2.398-3.26-3.26-5.996-3.26-3.567 0-6.427 1.6-6.643 5.197h3.721c0.093-1.476 1.138-2.274 2.922-2.274 2.183 0 2.705 1.014 2.705 2.521v0.984l-4.704 0.338c-3.044 0.215-5.411 1.968-5.411 5.012 0 2.613 1.966 5.012 5.78 5.012 2.275 0 4.12-1.107 4.858-2.398 0.123 1.199 1.045 2.245 2.706 2.245 0.91 0.01 1.25-0.14 1.89-0.42m-22.07-7.84c0 2.306-0.616 5.166-3.629 5.166-1.199 0-2.029-0.554-2.583-1.262-0.8-1.045-1.015-2.521-1.015-3.904s0.215-2.829 1.015-3.875c0.554-0.707 1.384-1.261 2.583-1.261 3-0.02 3.62 2.81 3.62 5.12m3.65 8.02v-22.2h-3.843v7.318c-0.677-0.831-2.152-1.508-4.182-1.508-1.631 0-2.922 0.492-3.906 1.292-1.906 1.568-2.859 3.997-2.859 7.134 0 3.013 0.922 5.412 2.829 6.979 0.984 0.8 2.306 1.354 3.905 1.354 1.752 0 3.537-0.646 4.49-2.122l0.246 1.753h3.31zm-27.98-6.36c0 2.367-1.691 3.659-4.09 3.659-1.199 0-2.274-0.769-2.274-1.999 0-1.291 1.138-1.999 2.307-2.091l4.058-0.308v0.74zm5.14 6.18v-2.829s-0.247 0.061-0.493 0.061c-0.646 0-0.891-0.275-0.891-1.014v-5.935c0-1.076-0.062-2.214-0.462-3.229-0.922-2.398-3.259-3.26-5.996-3.26-3.566 0-6.426 1.6-6.641 5.197h3.721c0.092-1.476 1.137-2.274 2.92-2.274 2.184 0 2.706 1.014 2.706 2.521v0.984l-4.705 0.338c-3.044 0.215-5.412 1.968-5.412 5.012 0 2.613 1.968 5.012 5.781 5.012 2.275 0 4.12-1.107 4.858-2.398 0.123 1.199 1.045 2.245 2.705 2.245 0.9 0.01 1.24-0.14 1.89-0.42m-17.03-5.47h-3.782c-0.03 0.584-0.215 1.076-0.462 1.476-0.461 0.707-1.291 1.199-2.459 1.199-1.046 0-1.814-0.462-2.338-1.016-0.921-1.014-1.076-2.521-1.076-4.027 0-1.508 0.154-3.044 1.076-4.059 0.523-0.554 1.292-0.983 2.338-0.983 1.168 0 1.998 0.491 2.459 1.199 0.247 0.399 0.432 0.891 0.462 1.476h3.782c-0.062-1.261-0.493-2.522-1.23-3.475-1.107-1.384-3.045-2.522-5.473-2.522-2.429 0-4.458 1.17-5.566 2.522-1.199 1.506-1.753 3.505-1.753 5.842s0.554 4.336 1.753 5.842c1.107 1.354 3.137 2.521 5.566 2.521 2.428 0 4.366-1.138 5.473-2.521 0.73-0.95 1.16-2.21 1.23-3.47m-17.44-10.33h-3.906v15.989h3.906v-15.99zm0.09-6.19h-4.121v3.967h4.121v-3.97zm-7.346 17.22c0-2.521-1.845-4.119-4.365-4.52-1.568-0.246-1.968-0.277-3.414-0.462-0.861-0.122-1.845-0.46-1.845-1.599 0-0.83 0.553-1.414 1.229-1.69 0.584-0.245 1.108-0.245 1.662-0.245 0.799 0 1.629 0.276 2.09 0.736 0.369 0.399 0.645 0.892 0.645 1.508h3.66c0-1.169-0.554-2.369-1.415-3.291-1.168-1.26-3.106-1.876-5.012-1.876-1.998 0-3.69 0.585-4.858 1.6-0.954 0.83-1.63 1.968-1.63 3.598 0 2.029 1.476 3.812 3.659 4.273 1.414 0.309 3.013 0.399 4.428 0.614 0.983 0.154 1.599 0.77 1.599 1.692 0 1.753-1.968 2.029-3.26 2.029-1.106 0-1.814-0.216-2.429-0.707-0.492-0.399-0.861-1.168-0.861-1.876h-3.597c0 1.507 0.769 2.829 1.691 3.721 1.323 1.261 3.137 1.845 5.166 1.845 2.184 0 4.182-0.554 5.473-1.845 0.831-0.83 1.384-1.97 1.384-3.51m-16.911 4.95v-15.989h-3.843v8.456c0 1.291-0.247 2.736-1.169 3.597-0.461 0.462-1.077 0.8-1.968 0.8-2.028 0-2.767-1.168-2.767-3.045v-9.808h-3.844v10.669c0 3.413 2.121 5.72 5.535 5.72 2.029 0 3.813-0.923 4.581-2.49l0.277 2.091h3.198zm-17.588 0v-10.793c0-3.321-1.784-5.597-5.196-5.597-2.153 0-3.874 0.954-4.827 2.614-0.8-1.63-2.337-2.614-4.582-2.614-2.123 0-3.659 1.046-4.551 2.522l-0.307-2.122h-3.198v15.989h3.812v-8.733c0-1.998 0.984-4.304 3.167-4.304 1.937 0 2.459 1.137 2.459 3.104v9.933h3.813v-8.733c0-1.998 0.954-4.304 3.136-4.304 1.937 0 2.46 1.137 2.46 3.104v9.933h3.814z" clip-path="url(#SVGID_4_)"/>
	<line y2="183.02" x1="359.4" x2="36.485" stroke="#231F20" y1="183.02" stroke-width="2.674" fill="none"/>
		<defs>
			<rect id="SVGID_5_" y="41.08" x="30.785" height="127.95" width="331.38"/>
		</defs>
		<clipPath id="SVGID_6_">
			<use overflow="visible" xlink:href="#SVGID_5_"/>
		</clipPath>
		<g fill="#231F20" clip-path="url(#SVGID_6_)">
			<path d="m70.902 137.36c-1.97 3.169-5.992 8.177-8.536 8.275 0.01-0.21 0.124-0.858 0.839-2.72l6.309-18.215c0.842-2.406 1.452-3.932 1.941-5.158 0.15-0.375 0.289-0.722 0.418-1.055l0.293-0.754-0.806 0.073c-0.845 0.076-1.876 0.076-2.874 0.076-1.001 0-1.792 0-2.636-0.076l-0.395-0.036-0.125 0.376c-0.229 0.687-0.438 1.383-0.663 2.135-0.394 1.316-0.84 2.808-1.541 4.709l-2.881 7.807c-1.591 2.716-9.535 12.687-13.21 12.687-0.762 0-0.918-0.336-0.918-0.84 0-0.499 0.401-1.634 0.789-2.731 0.149-0.423 0.304-0.859 0.444-1.282l5.048-14.277 0.254-0.729c0.665-1.895 1.352-3.855 1.352-5.193 0-1.38-0.717-3.024-4.13-3.024-4.701 0-9.197 4.758-10.635 8.193l-0.165 0.393 2.056 1.286 0.263-0.438c1.432-2.387 3.667-4.804 5.169-4.804 0.396 0 0.524 0.127 0.524 0.524 0 1.291-1.205 4.672-2.257 7.48l-3.861 10.715-0.333 0.855c-0.747 1.899-1.593 4.051-1.593 5.713 0 1.336 0.537 3.577 4.129 3.577 5.41 0 11.397-6.244 15.204-11.472l-1.169 3.24c-0.145 0.435-0.297 0.864-0.447 1.285-0.513 1.442-0.998 2.804-0.998 3.921 0 1.923 1.333 3.025 3.656 3.025 6.306 0 12.265-9.083 13.855-12.265l0.219-0.439-2.346-1.235-0.243 0.4z"/>
			<path d="m278.51 111.06c2.647 0 4.287-2.511 4.287-4.838 0-2.245-1.568-3.813-3.813-3.813-2.732 0-4.366 2.38-4.366 4.681 0 2.3 1.64 3.97 3.89 3.97z"/>
			<path d="m108.83 137.28c-2.125 3.511-6.424 8.822-8.64 8.822h-0.05c0.021-1 0.381-1.439 0.646-2.083 0.121-0.294 0.241-0.702 0.342-0.963l6.234-15.445c0.141-0.366 0.294-0.776 0.451-1.166 0.728-1.809 1.553-3.873 1.553-5.523 0-1.691-1.084-3.505-4.129-3.505-5.714 0-12.508 6.822-16.291 11.776l1.467-4.182c0.095-0.284 0.199-0.579 0.306-0.878 0.444-1.25 0.903-2.543 0.903-3.698 0-1.505-1.204-3.024-3.893-3.024-4.589 0-9.155 4.844-10.557 8.193l-0.165 0.393 2.057 1.286 0.263-0.438c1.432-2.387 3.668-4.804 5.169-4.804 0.392 0 0.524 0.132 0.524 0.524 0 1.292-1.205 4.673-2.257 7.48l-4.73 13.085c-1.169 3.121-1.878 4.934-2.502 6.182l-0.403 0.805 0.897-0.082c0.845-0.077 2.005-0.077 3.03-0.077 1.003 0 1.87 0 2.715 0.077l0.411 0.038 0.392-1.355c0.471-1.646 1.004-3.511 1.921-5.868l2.723-7.334c1.466-2.501 10.514-12.765 14.236-12.765 0.762 0 0.918 0.336 0.918 0.84 0 0.858-0.739 2.725-1.538 4.617l-6.568 15.667c-0.56 1.359-0.963 2.341-0.963 3.375 0 1.541 1.082 3.341 4.129 3.341 6.047 0 11.656-8.022 13.777-12.265l0.219-0.439-2.351-1.123-0.24 0.5z"/>
			<path d="m155.77 117.25c-4.159 0-7.259 2.504-9.084 4.527 0.073-0.401 0.121-0.813 0.121-1.211-0.102-2.037-1.4-3.158-3.655-3.158-4.65 0-9.119 4.758-10.558 8.193l-0.165 0.393 2.056 1.286 0.263-0.438c1.432-2.387 3.667-4.804 5.169-4.804 0.5 0 0.525 0.161 0.525 0.446 0 0.911-0.654 2.824-1.411 5.039-0.275 0.804-0.566 1.656-0.85 2.527l-10.333 30.208c-0.99 2.969-1.587 4.414-2.515 5.126-0.974 0.765-2.107 0.92-4.439 0.996l-0.366 0.012-0.76 2.663 2.886-0.066c2.567-0.06 4.595-0.107 6.378-0.107 2.247 0 7.354 0.082 10.715 0.158l0.387 0.009 0.751-2.632-3.386-0.191c-3.086-0.172-4.18-0.702-4.18-2.023 0-0.76 0.167-1.528 0.683-3.151l3.156-9.309c0.411-1.232 0.875-2.702 1.193-3.724 0.717 1.363 2.17 2.805 5.113 2.805 4.813 0 10.217-3.768 14.449-10.073 3.365-4.843 5.375-10.434 5.375-14.955-0.03-5.54-2.7-8.57-7.55-8.57zm-3.21 21.89c-2.834 5.67-6.036 8.793-9.015 8.793-3.185 0-3.584-2.897-3.599-4.232l5.005-15.409c2.822-4.875 5.93-7.669 8.53-7.669 2.323 0 2.811 2.687 2.811 4.94 0.02 3.63-1.45 8.96-3.72 13.58z"/>
			<path d="m321.51 137.36c-2.126 3.419-6.138 8.488-8.615 8.59 0.018-0.281 0.234-0.907 0.428-1.462 0.146-0.42 0.3-0.753 0.414-1.154l7.062-21.232h6.988l1.634-3.925-0.814-0.089c-0.024 0.001-2.456 0.015-4.7 0.015h-1.891l0.158-0.357c0.346-1.037 1.04-2.861 1.499-4.097l0.698-1.88-0.884 0.197c-1.42 0.3-4.294 0.39-5.542 0.312l-0.405-0.023-0.109 0.393c-0.393 1.413-0.787 2.511-1.33 4.136l-0.511 1.318h-5.079l-0.983 4h4.851l-6.957 20.68c-0.155 0.466-0.32 0.872-0.48 1.32-0.518 1.447-0.965 2.669-0.964 3.672 0.05 0.949 0.545 3.142 4.051 3.142 6.304 0 12.264-9.089 13.854-12.271l0.22-0.442-2.345-1.237-0.27 0.4z"/>
			<path d="m280.19 137.88l-2.449-1.227-0.238 0.401c-2.02 3.395-6.115 8.385-8.681 8.58 0.064-0.436 0.437-1.329 0.742-2.063l7.493-18.456c0.633-1.581 1.22-3.223 1.219-4.548-0.069-1.44-0.815-3.158-3.972-3.158-4.628 0-9.193 4.753-10.711 8.185l-0.18 0.42 2.165 1.274 0.252-0.443c1.317-2.324 3.548-4.794 5.084-4.794 0.46 0 0.551 0.123 0.603 0.446 0 0.872-0.888 3.351-2.642 7.375l-5.921 13.975-0.178 0.448c-0.355 0.889-0.725 1.807-0.725 3.044 0 1.951 1.628 3.262 4.051 3.262 7.233 0 13.195-11.002 13.852-12.256l0.25-0.45z"/>
			<path d="m256.68 137.28c-2.125 3.512-6.424 8.822-8.641 8.822h-0.05c0.021-1 0.383-1.446 0.649-2.094 0.119-0.291 0.238-0.694 0.338-0.953l6.233-15.445c0.141-0.366 0.294-0.775 0.451-1.165 0.729-1.809 1.555-3.874 1.555-5.524 0-1.691-1.085-3.505-4.129-3.505-5.713 0-12.507 6.82-16.291 11.774l1.467-4.181c0.096-0.288 0.202-0.587 0.31-0.89 0.441-1.246 0.899-2.534 0.899-3.686 0-1.505-1.204-3.024-3.893-3.024-4.589 0-9.156 4.844-10.559 8.193l-0.164 0.393 2.056 1.286 0.263-0.438c1.435-2.388 3.671-4.805 5.17-4.805 0.392 0 0.523 0.132 0.523 0.524 0 1.294-1.204 4.674-2.256 7.48l-4.731 13.085c-1.165 3.111-1.872 4.922-2.501 6.182l-0.402 0.805 0.896-0.082c0.843-0.077 2.005-0.077 3.029-0.077 1.003 0 1.87 0 2.715 0.077l0.412 0.038 0.38-1.318c0.473-1.655 1.009-3.53 1.933-5.906l2.722-7.333c1.468-2.502 10.52-12.765 14.236-12.765 0.762 0 0.917 0.336 0.917 0.84 0 0.863-0.738 2.729-1.538 4.617l-6.559 15.647c-0.564 1.368-0.973 2.356-0.973 3.395 0 1.541 1.082 3.341 4.131 3.341 6.047 0 11.655-8.022 13.775-12.265l0.22-0.439-2.351-1.123-0.27 0.5z"/>
			<path d="m359.85 136.96l-0.246 0.397c-2.104 3.384-6.363 8.281-8.565 8.281-0.02 0-0.036 0-0.051-0.001 0.018-0.404 0.381-1.362 0.703-2.21 0.186-0.491 0.377-0.995 0.532-1.458l4.889-13.958c0.574-1.62 1.07-3.041 1.507-4.288 0.877-2.509 1.511-4.322 2.034-5.629l0.308-0.768-0.823 0.083c-0.765 0.077-2.019 0.077-2.554 0.077-0.797 0-1.55 0-2.314-0.077l-0.377-0.038-0.785 1.991c-0.854-1.092-2.284-1.719-4.016-1.719-6.188 0-13.066 6.545-17.441 12.671-3.812 5.336-6.088 10.811-6.088 14.644 0 3.944 1.813 5.943 5.391 5.943 5.853 0 11.353-5.474 14.611-9.997l-0.969 2.79c-0.098 0.291-0.214 0.602-0.334 0.922-0.374 0.996-0.798 2.125-0.797 3.123 0.085 2.009 1.504 3.162 3.893 3.162 6.142 0 11.914-8.853 13.619-12.265l0.22-0.439-2.35-1.2zm-24.04 9c-0.961 0-1.943-0.306-1.943-2.575 0-2.797 1.937-7.923 4.817-12.753 3.953-6.557 7.834-10.168 10.927-10.168 1.786 0 2.811 0.967 2.811 2.654 0 0.292 0 0.569-0.05 0.78l-2.367 6.781c-2.61 7.43-11.11 15.29-14.2 15.29z"/>
			<path d="m296.86 117.25c-6.74 0-10.912 5.132-10.912 9.886 0 2.387 0.923 4.512 2.815 6.493l3.948 4.263c1.386 1.458 2.148 3.128 2.148 4.703 0 2.569-1.595 5.334-5.097 5.334-2.594 0-3.262-1.677-3.97-3.452-0.591-1.482-1.202-3.016-3.05-3.016-1.476 0-2.275 0.793-2.688 1.458-0.686 1.109-0.724 2.571-0.364 3.29 1.083 2.165 4.04 4.693 8.81 4.693 7.521 0 12.016-5.508 12.016-10.833 0-2.474-1.051-4.804-3.206-7.119l-3.794-4.188c-1.54-1.626-2.227-3.053-2.227-4.624 0-2.352 1.706-3.995 4.149-3.995 1.834 0 2.506 1.248 3.216 2.569 0.625 1.162 1.333 2.479 2.937 2.479 1.694 0 2.789-1.249 2.789-3.183 0-0.991-0.368-1.997-0.937-2.563-1.34-1.34-3.93-2.2-6.59-2.2z"/>
			<path d="m218.91 137.36c-2.104 3.384-6.365 8.281-8.564 8.281-0.02 0-0.036 0-0.051-0.001 0.018-0.403 0.379-1.357 0.699-2.201 0.187-0.494 0.379-1.001 0.534-1.467l4.889-13.958c0.585-1.649 1.09-3.091 1.531-4.355 0.866-2.478 1.492-4.267 2.011-5.563l0.307-0.768-0.822 0.083c-0.764 0.077-2.018 0.077-2.553 0.077-0.798 0-1.552 0-2.315-0.077l-0.377-0.038-0.785 1.991c-0.854-1.092-2.284-1.719-4.015-1.719-6.188 0-13.068 6.545-17.442 12.671-3.812 5.335-6.087 10.81-6.087 14.644 0 3.944 1.813 5.943 5.391 5.943 5.851 0 11.349-5.472 14.608-9.994l-0.968 2.788c-0.097 0.29-0.213 0.599-0.332 0.917-0.374 0.998-0.798 2.127-0.797 3.127 0.084 2.009 1.503 3.162 3.893 3.162 6.145 0 11.914-8.853 13.618-12.265l0.22-0.439-2.346-1.235-0.24 0.4zm-23.79 8.6c-0.961 0-1.943-0.306-1.943-2.575 0-2.799 1.937-7.925 4.818-12.753 3.953-6.557 7.834-10.168 10.927-10.168 1.786 0 2.81 0.967 2.81 2.654 0 0.292 0 0.569-0.05 0.781l-2.366 6.781c-2.61 7.43-11.11 15.29-14.2 15.29z"/>
			<path d="m182 137.05c-2.018 3.395-6.112 8.386-8.679 8.58 0.064-0.434 0.433-1.321 0.742-2.063l7.493-18.456c0.633-1.583 1.219-3.227 1.219-4.547-0.069-1.441-0.814-3.159-3.972-3.159-4.629 0-9.195 4.753-10.711 8.185l-0.18 0.42 2.165 1.274 0.251-0.444c1.317-2.324 3.546-4.793 5.084-4.793 0.46 0 0.551 0.123 0.603 0.446 0 0.873-0.888 3.353-2.642 7.375l-5.921 13.975-0.178 0.45c-0.355 0.888-0.723 1.806-0.723 3.042 0 1.951 1.628 3.262 4.051 3.262 7.236 0 13.195-11.002 13.851-12.256l0.237-0.453-2.451-1.226-0.24 0.4z"/>
			<path d="m183.48 102.41c-2.732 0-4.365 2.38-4.365 4.681 0 2.3 1.637 3.97 3.893 3.97 2.647 0 4.286-2.511 4.286-4.838-0.01-2.25-1.58-3.81-3.82-3.81z"/>
			<path d="m145.72 69.919c0-5.23-2.712-8.229-7.441-8.229-10.388 0-21.794 12.728-21.794 24.318 0 5.968 3.035 9.255 8.545 9.255 11.42 0.001 20.68-15.335 20.68-25.344zm-9.72-5.019c2.466 0 2.732 3.345 2.732 4.784 0 9.977-7.562 22.605-12.196 22.605-1.409 0-3.283-0.618-3.283-5.965 0-3.924 1.589-9.328 4.048-13.767 2.69-4.866 5.86-7.657 8.7-7.657z"/>
			<path d="m194.91 95.343c5.85 0 11.35-5.474 14.609-9.997l-0.969 2.791c-0.098 0.293-0.215 0.606-0.336 0.929-0.372 0.993-0.794 2.119-0.793 3.114 0.083 2.01 1.501 3.162 3.892 3.162 6.143 0 11.915-8.853 13.62-12.265l0.22-0.439-2.347-1.235-0.246 0.396c-2.104 3.384-6.365 8.281-8.564 8.281-0.02 0-0.036 0-0.051-0.001 0.018-0.403 0.379-1.355 0.698-2.198 0.187-0.495 0.38-1.003 0.535-1.47l4.889-13.958c0.582-1.641 1.085-3.078 1.525-4.337 0.869-2.486 1.497-4.282 2.018-5.581l0.308-0.768-0.823 0.083c-0.765 0.077-2.019 0.077-2.554 0.077-0.763 0-1.551 0-2.315-0.077l-0.377-0.038-0.785 1.991c-0.854-1.092-2.284-1.719-4.014-1.719-6.188 0-13.068 6.545-17.444 12.671-3.811 5.336-6.086 10.811-6.086 14.644-0.03 3.944 1.79 5.944 5.37 5.944zm17.66-30.443c1.786 0 2.81 0.967 2.81 2.654 0 0.292 0 0.569-0.05 0.781l-2.366 6.782c-2.605 7.425-11.106 15.279-14.195 15.279-0.961 0-1.943-0.306-1.943-2.575 0-2.8 1.937-7.926 4.818-12.753 3.96-6.556 7.84-10.168 10.93-10.168z"/>
			<path d="m177.33 66.102l-6.955 20.901c-0.155 0.464-0.319 0.978-0.479 1.424-0.519 1.449-0.967 2.729-0.966 3.732 0.05 0.949 0.543 3.17 4.05 3.17 6.306 0 12.265-9.076 13.855-12.258l0.219-0.436-2.346-1.233-0.246 0.398c-2.125 3.418-6.135 8.487-8.614 8.59 0.018-0.282 0.235-0.909 0.429-1.466 0.145-0.418 0.298-0.97 0.412-1.37l7.062-21.454h6.988l1.635-3.704-0.815 0.3c-0.024 0.002-2.456 0.404-4.7 0.404h-1.891l0.159-0.638c0.341-1.024 1.028-2.968 1.482-4.19l0.714-1.995-0.883 0.162c-1.42 0.299-4.292 0.374-5.544 0.294l-0.405-0.032-0.109 0.389c-0.39 1.406-0.785 2.783-1.329 4.413l-0.511 1.596h-5.078l-0.984 3h4.827z"/>
			<path d="m164.21 81.401l-0.247 0.399c-1.831 2.944-5.954 8.486-8.615 8.59 0.018-0.281 0.235-0.908 0.428-1.463 0.146-0.419 0.299-0.972 0.414-1.372l7.063-21.454h6.987l1.636-3.704-0.815 0.3c-0.024 0.002-2.456 0.404-4.701 0.404h-1.891l0.159-0.638c0.348-1.042 1.044-3.013 1.506-4.254l0.691-1.931-0.884 0.162c-1.419 0.299-4.29 0.374-5.544 0.294l-0.405-0.031-0.109 0.388c-0.386 1.387-0.773 2.745-1.328 4.413l-0.511 1.596h-5.08l-0.983 3h4.85l-6.956 20.901c-0.156 0.468-0.322 0.985-0.482 1.435-0.517 1.445-0.963 2.72-0.962 3.722 0.05 0.949 0.545 3.17 4.049 3.17 6.307 0 12.265-9.076 13.855-12.258l0.219-0.436-2.35-1.233z"/>
			<path d="m104.06 86.407l10.175-29.971c2.012-6.037 3.8-11.228 5.311-13.613l0.195-0.309-1.216-1.461-0.296 0.064c-1.868 0.4-7.423 0.91-12 1.252l-0.487 0.073 0.125 2.659h5.897c-0.331 1-0.867 2.766-1.518 4.744l-0.751 2.274c-0.028 0.087-2.528 7.9-3.642 11.476-0.883-0.955-2.25-1.507-3.845-1.507-6.188 0-13.068 6.543-17.444 12.669-3.812 5.336-6.087 10.809-6.087 14.643 0 0.921 0.099 1.735 0.296 2.443l-0.209-0.024c-0.37-0.042-0.736-0.073-1.096-0.103-1.571-0.128-2.927-0.239-3.757-1.345-0.862-1.222-1.098-4.008-1.25-6.526l-1.735-27.053-0.011-0.159c-0.39-5.383-0.699-9.636-0.776-12.047l-0.016-0.486h-2.345l-0.146 0.242c-0.854 1.408-2.146 3.464-3.728 5.979-1.34 2.13-2.887 4.591-4.549 7.265l-16.71 26.73-0.687 1.069c-1.35 2.112-2.416 3.78-3.764 4.873-1.745 1.292-3.483 1.396-5.323 1.506-0.268 0.016-0.536 0.032-0.804 0.052l-0.349 0.025-0.757 2.646 3.434-0.079c2.202-0.053 3.921-0.094 5.516-0.094 1.802 0 3.902 0.048 6.562 0.109l2.567 0.057 0.75-2.624-0.618-0.042c-0.259-0.018-0.535-0.033-0.82-0.048-2.488-0.134-4.548-0.351-4.548-1.66 0-0.423 0.193-1.257 1.113-2.82 0.364-0.619 0.745-1.271 1.525-2.504 0.891-1.408 2.299-3.683 4.788-7.683h14.317l0.363 5.422c0.156 2.19 0.156 3.474 0.156 4.485 0 4.077-1.536 4.247-4.594 4.561l-2.786 0.275-0.753 2.642 0.68-0.013c3.495-0.076 8.062-0.157 10.4-0.157 2.045 0 4.854 0.062 8.105 0.134l1.497 0.033 0.576-2.014c0.767 1.91 2.4 2.874 4.884 2.874 5.299 0 10.944-4.8 14.685-9.985l-0.964 2.778c-0.097 0.291-0.213 0.6-0.333 0.92-0.374 0.997-0.797 2.126-0.797 3.125 0.06 1.442 0.744 3.162 3.656 3.162 6.206 0 11.992-8.853 13.698-12.265l0.219-0.439-2.347-1.235-0.246 0.396c-2.103 3.384-6.363 8.281-8.564 8.281-0.019 0-0.036 0-0.05-0.001 0.018-0.402 0.378-1.354 0.697-2.196 0.19-0.494 0.38-1.003 0.54-1.475zm-47.84-17.67c3.547-5.804 6.264-10.425 7.822-13.251 0.193 3.895 0.655 12.043 0.712 12.958l0.36 5.658h-12.135l3.241-5.365zm45.31-3.837c1.787 0 2.811 0.967 2.811 2.654 0 0.292 0 0.568-0.051 0.781l-2.365 6.782c-2.6 7.425-11.1 15.279-14.189 15.279-0.961 0-1.944-0.306-1.944-2.575 0-2.799 1.937-7.925 4.817-12.753 3.956-6.556 7.837-10.168 10.926-10.168z"/>
		</g>
</svg>
