<?xml version="1.0" encoding="utf-8"?>
<!-- Generator: Adobe Illustrator 16.0.0, SVG Export Plug-In . SVG Version: 6.00 Build 0)  -->
<!DOCTYPE svg PUBLIC "-//W3C//DTD SVG 1.1//EN" "http://www.w3.org/Graphics/SVG/1.1/DTD/svg11.dtd">
<svg version="1.1" id="Livello_1" xmlns="http://www.w3.org/2000/svg" xmlns:xlink="http://www.w3.org/1999/xlink" x="0px" y="0px"
	 width="402.65px" height="373.102px" viewBox="0 0 402.65 373.102" enable-background="new 0 0 402.65 373.102"
	 xml:space="preserve">
<g>
	<path fill="#F7941D" d="M-0.506,246.067c0,69.429,56.283,125.712,125.711,125.712c0.508,0,1.01-0.033,1.516-0.039
		c3.02,0.559,6.227,0.873,9.668,0.873h265.754V-0.489h-152.73c0,94.258-60.15,120.967-129.051,120.967
		C37.854,120.478-0.506,178.263-0.506,246.067"/>
</g>
<g>
	<defs>
		<rect id="SVGID_1_" x="894.35" y="0.164" width="616.82" height="372"/>
	</defs>
	<clipPath id="SVGID_2_">
		<use xlink:href="#SVGID_1_"  overflow="visible"/>
	</clipPath>
	
		<line clip-path="url(#SVGID_2_)" fill="none" stroke="#FFFFFF" stroke-width="0.25" x1="147.485" y1="75.624" x2="2258.035" y2="75.624"/>
	
		<line clip-path="url(#SVGID_2_)" fill="none" stroke="#FFFFFF" stroke-width="0.25" x1="147.485" y1="87.347" x2="2258.035" y2="87.347"/>
	
		<line clip-path="url(#SVGID_2_)" fill="none" stroke="#FFFFFF" stroke-width="0.25" x1="147.485" y1="99.07" x2="2258.035" y2="99.07"/>
	
		<line clip-path="url(#SVGID_2_)" fill="none" stroke="#FFFFFF" stroke-width="0.25" x1="147.485" y1="110.794" x2="2258.035" y2="110.794"/>
	
		<line clip-path="url(#SVGID_2_)" fill="none" stroke="#FFFFFF" stroke-width="0.25" x1="147.485" y1="122.518" x2="2258.035" y2="122.518"/>
	
		<line clip-path="url(#SVGID_2_)" fill="none" stroke="#FFFFFF" stroke-width="0.25" x1="147.485" y1="235.435" x2="2258.035" y2="235.435"/>
	
		<line clip-path="url(#SVGID_2_)" fill="none" stroke="#FFFFFF" stroke-width="0.25" x1="147.485" y1="247.157" x2="2258.035" y2="247.157"/>
	
		<line clip-path="url(#SVGID_2_)" fill="none" stroke="#FFFFFF" stroke-width="0.25" x1="147.485" y1="258.881" x2="2258.035" y2="258.881"/>
	
		<line clip-path="url(#SVGID_2_)" fill="none" stroke="#FFFFFF" stroke-width="0.25" x1="147.485" y1="270.604" x2="2258.035" y2="270.604"/>
	
		<line clip-path="url(#SVGID_2_)" fill="none" stroke="#FFFFFF" stroke-width="0.25" x1="147.485" y1="282.328" x2="2258.035" y2="282.328"/>
</g>
</svg>
