<?xml version="1.0" encoding="UTF-8" standalone="no"?>
<!-- Generator: Adobe Illustrator 16.0.0, SVG Export Plug-In . SVG Version: 6.00 Build 0)  -->
<!DOCTYPE svg  PUBLIC '-//W3C//DTD SVG 1.1//EN'  'http://www.w3.org/Graphics/SVG/1.1/DTD/svg11.dtd'>
<svg id="Livello_1" xmlns="http://www.w3.org/2000/svg" xml:space="preserve" height="373.1px" viewBox="0 0 402.65 373.102" width="402.65px" version="1.1" y="0px" x="0px" xmlns:xlink="http://www.w3.org/1999/xlink" enable-background="new 0 0 402.65 373.102">
	<path d="m-0.855 246.27c0 69.429 56.283 125.71 125.71 125.71 0.508 0 1.01-0.033 1.516-0.039 3.02 0.559 6.227 0.873 9.668 0.873h265.75v-373.1h-152.73c0 94.258-60.15 120.97-129.05 120.97-82.516 0-120.88 57.79-120.88 125.59" fill="#C33A1D"/>
	<defs>
		<rect id="SVGID_1_" y=".266" x="446" height="372" width="616.82"/>
	</defs>
	<clipPath id="SVGID_2_">
		<use overflow="visible" xlink:href="#SVGID_1_"/>
	</clipPath>
		<line y2="75.726" x1="-300.86" clip-path="url(#SVGID_2_)" x2="1809.7" stroke="#fff" y1="75.726" stroke-width=".25" fill="none"/>
		<line y2="87.448" x1="-300.86" clip-path="url(#SVGID_2_)" x2="1809.7" stroke="#fff" y1="87.448" stroke-width=".25" fill="none"/>
		<line y2="99.172" x1="-300.86" clip-path="url(#SVGID_2_)" x2="1809.7" stroke="#fff" y1="99.172" stroke-width=".25" fill="none"/>
		<line y2="110.9" x1="-300.86" clip-path="url(#SVGID_2_)" x2="1809.7" stroke="#fff" y1="110.9" stroke-width=".25" fill="none"/>
		<line y2="122.62" x1="-300.86" clip-path="url(#SVGID_2_)" x2="1809.7" stroke="#fff" y1="122.62" stroke-width=".25" fill="none"/>
		<line y2="235.54" x1="-300.86" clip-path="url(#SVGID_2_)" x2="1809.7" stroke="#fff" y1="235.54" stroke-width=".25" fill="none"/>
		<line y2="247.26" x1="-300.86" clip-path="url(#SVGID_2_)" x2="1809.7" stroke="#fff" y1="247.26" stroke-width=".25" fill="none"/>
		<line y2="258.98" x1="-300.86" clip-path="url(#SVGID_2_)" x2="1809.7" stroke="#fff" y1="258.98" stroke-width=".25" fill="none"/>
		<line y2="270.71" x1="-300.86" clip-path="url(#SVGID_2_)" x2="1809.7" stroke="#fff" y1="270.71" stroke-width=".25" fill="none"/>
		<line y2="282.43" x1="-300.86" clip-path="url(#SVGID_2_)" x2="1809.7" stroke="#fff" y1="282.43" stroke-width=".25" fill="none"/>
</svg>
